<svg width="45" height="45" viewBox="0 0 45 45" fill="none" xmlns="http://www.w3.org/2000/svg">
<path d="M44.9993 22.4999C44.9993 10.0933 34.9059 -0.00012207 22.4996 -0.00012207C10.0933 -0.00012207 -8.65087e-05 10.0933 -8.65087e-05 22.4999C-8.65087e-05 34.9065 10.0933 44.9999 22.4996 44.9999C34.9059 44.9999 44.9993 34.9065 44.9993 22.4999ZM0.319625 22.4999C0.319625 10.2697 10.2694 0.319589 22.4996 0.319589C34.7298 0.319589 44.6796 10.2697 44.6796 22.4999C44.6796 34.7301 34.7298 44.6802 22.4996 44.6802C10.2694 44.6802 0.319625 34.7301 0.319625 22.4999Z" fill="#14274E"/>
<path d="M38.5938 28.3475C38.6219 28.2647 38.5806 28.1726 38.4976 28.1427C38.4152 28.1124 38.3234 28.1552 38.2928 28.2382C35.8893 34.8541 29.5425 39.2992 22.4995 39.2992C22.4115 39.2992 22.3397 39.3707 22.3397 39.459C22.3397 39.5474 22.4115 39.6189 22.4995 39.6189C29.6762 39.6189 36.1441 35.0892 38.5938 28.3475Z" fill="#14274E"/>
<path d="M39.2989 22.5001C39.2989 22.9834 39.2783 23.4727 39.2371 23.9544C39.2365 23.9588 39.2365 23.9635 39.2365 23.9682C39.2365 24.0503 39.2996 24.1199 39.3826 24.1271C39.4707 24.1346 39.5481 24.0693 39.5556 23.9813C39.5974 23.4908 39.6187 22.9922 39.6187 22.5001C39.6187 22.4118 39.5468 22.3403 39.4588 22.3403C39.3708 22.3403 39.2989 22.4118 39.2989 22.5001Z" fill="#14274E"/>
<path d="M31.9951 15H12.0049C11.4507 15 11 15.4468 11 15.9957V30.0039C11 30.5535 11.451 31 12.0049 31H31.9951C32.549 31 33 30.5532 33 30.0039V15.9957C33 15.4466 32.5488 15 31.9951 15ZM12.0049 15.2986H31.9951C32.3311 15.2986 32.5995 15.538 32.6691 15.8499L22.58 23.6704C22.2659 23.9141 21.7346 23.9141 21.4198 23.6704L11.3309 15.8499C11.4005 15.5378 11.6689 15.2986 12.0049 15.2986ZM31.9951 30.7015H12.0049C11.6172 30.7015 11.3013 30.3891 11.3013 30.0039V16.2056L21.2342 23.9055C21.4453 24.0694 21.7232 24.151 21.9997 24.151C22.2776 24.151 22.5542 24.0697 22.7655 23.9055L32.6987 16.2058V30.0041C32.6984 30.3891 32.3831 30.7015 31.9951 30.7015Z" fill="#14274E"/>
</svg>
