<svg width="45" height="46" viewBox="0 0 45 46" fill="none" xmlns="http://www.w3.org/2000/svg">
<path d="M44.9993 22.5317C44.9993 10.1076 34.9059 0 22.4996 0C10.0933 0 -8.7738e-05 10.1076 -8.7738e-05 22.5317C-8.7738e-05 34.9558 10.0933 45.0634 22.4996 45.0634C34.9059 45.0634 44.9993 34.9558 44.9993 22.5317ZM0.319622 22.5317C0.319622 10.2843 10.2694 0.320162 22.4996 0.320162C34.7298 0.320162 44.6796 10.2843 44.6796 22.5317C44.6796 34.7791 34.7298 44.7432 22.4996 44.7432C10.2694 44.7432 0.319622 34.7791 0.319622 22.5317Z" fill="#14274E"/>
<path d="M38.5938 28.3875C38.6219 28.3047 38.5806 28.2124 38.4976 28.1824C38.4152 28.1521 38.3234 28.1949 38.2928 28.2781C35.8893 34.9033 29.5425 39.3546 22.4995 39.3546C22.4115 39.3546 22.3397 39.4262 22.3397 39.5147C22.3397 39.6032 22.4115 39.6748 22.4995 39.6748C29.6762 39.6748 36.1441 35.1387 38.5938 28.3875Z" fill="#14274E"/>
<path d="M39.2989 22.5319C39.2989 23.0159 39.2783 23.5058 39.2371 23.9883C39.2365 23.9926 39.2365 23.9973 39.2365 24.002C39.2365 24.0843 39.2996 24.154 39.3826 24.1612C39.4707 24.1687 39.5481 24.1033 39.5556 24.0152C39.5974 23.524 39.6187 23.0247 39.6187 22.5319C39.6187 22.4434 39.5468 22.3718 39.4588 22.3718C39.3708 22.3718 39.2989 22.4434 39.2989 22.5319Z" fill="#14274E"/>
<path d="M14.4975 34H29.5025C30.8796 34 32 32.8808 32 31.5049V12.4949C32 11.1192 30.8796 10 29.5025 10H14.4975C13.1204 10 12 11.1192 12 12.4949V31.5049C12 32.8808 13.1204 34 14.4975 34ZM12.1836 12.4949C12.1836 11.2204 13.2215 10.1834 14.4975 10.1834H29.5025C30.7785 10.1834 31.8164 11.2204 31.8164 12.4949V31.5049C31.8164 32.7796 30.7785 33.8166 29.5025 33.8166H14.4975C13.2215 33.8166 12.1836 32.7796 12.1836 31.5049V12.4949Z" fill="#14274E"/>
<path d="M15.0132 21.59H28.9871C29.0376 21.59 29.0789 21.549 29.0789 21.4983V13.1825C29.0789 13.1319 29.0376 13.0909 28.9871 13.0909H15.0132C14.9626 13.0909 14.9214 13.1319 14.9214 13.1825V21.4983C14.9214 21.549 14.9626 21.59 15.0132 21.59ZM15.105 13.2742H28.8953V21.4066H15.105V13.2742Z" fill="#14274E"/>
<path d="M23.3779 23.466H20.6223C20.5717 23.466 20.5305 23.507 20.5305 23.5577V26.3101C20.5305 26.3608 20.5717 26.4018 20.6223 26.4018H23.3779C23.4285 26.4018 23.4697 26.3608 23.4697 26.3101V23.5577C23.4697 23.507 23.4285 23.466 23.3779 23.466ZM23.2861 26.2184H20.7141V23.6494H23.2861V26.2184Z" fill="#14274E"/>
<path d="M15.0132 26.4018H17.7684C17.819 26.4018 17.8602 26.3608 17.8602 26.3101V23.5577C17.8602 23.507 17.819 23.466 17.7684 23.466H15.0132C14.9626 23.466 14.9214 23.507 14.9214 23.5577V26.3101C14.9214 26.3608 14.9626 26.4018 15.0132 26.4018ZM15.105 23.6494H17.6767V26.2184H15.105V23.6494Z" fill="#14274E"/>
<path d="M28.9869 23.466H26.2317C26.1811 23.466 26.1399 23.507 26.1399 23.5577V26.3101C26.1399 26.3608 26.1811 26.4018 26.2317 26.4018H28.9869C29.0375 26.4018 29.0787 26.3608 29.0787 26.3101V23.5577C29.0787 23.507 29.0375 23.466 28.9869 23.466ZM28.8952 26.2184H26.3235V23.6494H28.8952V26.2184Z" fill="#14274E"/>
<path d="M23.3779 28.2337H20.6223C20.5717 28.2337 20.5305 28.2747 20.5305 28.3254V31.0778C20.5305 31.1285 20.5717 31.1695 20.6223 31.1695H23.3779C23.4285 31.1695 23.4697 31.1285 23.4697 31.0778V28.3254C23.4697 28.2747 23.4285 28.2337 23.3779 28.2337ZM23.2861 30.9861H20.7141V28.4171H23.2861V30.9861Z" fill="#14274E"/>
<path d="M15.0132 31.1695H17.7684C17.819 31.1695 17.8602 31.1285 17.8602 31.0778V28.3254C17.8602 28.2747 17.819 28.2337 17.7684 28.2337H15.0132C14.9626 28.2337 14.9214 28.2747 14.9214 28.3254V31.0778C14.9214 31.1285 14.9626 31.1695 15.0132 31.1695ZM15.105 28.4171H17.6767V30.9861H15.105V28.4171Z" fill="#14274E"/>
<path d="M28.9869 28.2337H26.2317C26.1811 28.2337 26.1399 28.2747 26.1399 28.3254V31.0778C26.1399 31.1285 26.1811 31.1695 26.2317 31.1695H28.9869C29.0375 31.1695 29.0787 31.1285 29.0787 31.0778V28.3254C29.0787 28.2747 29.0375 28.2337 28.9869 28.2337ZM28.8952 30.9861H26.3235V28.4171H28.8952V30.9861Z" fill="#14274E"/>
</svg>
