<svg width="45" height="46" viewBox="0 0 45 46" fill="none" xmlns="http://www.w3.org/2000/svg">
<path d="M44.9993 22.5317C44.9993 10.1076 34.9059 0 22.4996 0C10.0933 0 -8.7738e-05 10.1076 -8.7738e-05 22.5317C-8.7738e-05 34.9558 10.0933 45.0634 22.4996 45.0634C34.9059 45.0634 44.9993 34.9558 44.9993 22.5317ZM0.319622 22.5317C0.319622 10.2843 10.2694 0.320162 22.4996 0.320162C34.7298 0.320162 44.6796 10.2843 44.6796 22.5317C44.6796 34.7791 34.7298 44.7432 22.4996 44.7432C10.2694 44.7432 0.319622 34.7791 0.319622 22.5317Z" fill="#14274E"/>
<path d="M38.5938 28.3875C38.6219 28.3047 38.5806 28.2124 38.4976 28.1824C38.4152 28.1521 38.3234 28.1949 38.2928 28.2781C35.8893 34.9033 29.5425 39.3546 22.4995 39.3546C22.4115 39.3546 22.3397 39.4262 22.3397 39.5147C22.3397 39.6032 22.4115 39.6748 22.4995 39.6748C29.6762 39.6748 36.1441 35.1387 38.5938 28.3875Z" fill="#14274E"/>
<path d="M39.2989 22.5319C39.2989 23.0159 39.2783 23.5058 39.2371 23.9883C39.2365 23.9926 39.2365 23.9973 39.2365 24.002C39.2365 24.0843 39.2996 24.154 39.3826 24.1612C39.4707 24.1687 39.5481 24.1033 39.5556 24.0152C39.5974 23.524 39.6187 23.0247 39.6187 22.5319C39.6187 22.4434 39.5468 22.3718 39.4588 22.3718C39.3708 22.3718 39.2989 22.4434 39.2989 22.5319Z" fill="#14274E"/>
<path d="M36.8693 21.1026C36.798 21.034 36.6983 20.9991 36.573 20.9987L35.7993 20.9991C35.2973 18.1403 32.675 16 29.6477 16C27.0873 16.0071 24.778 17.5605 23.852 19.8021C23.3163 19.6713 22.7903 19.6127 22.0883 19.6053C22.079 19.6037 22.0687 19.6034 22.0583 19.6037H22.058C21.282 19.6133 20.7217 19.6813 20.158 19.8335C19.2373 17.5704 16.9263 16.0013 14.3503 16.0013C11.3247 16.0045 8.70067 18.142 8.19967 21.001L7.426 21.0007C7.00733 20.9981 7 21.378 7 21.627C7 21.8764 7.00067 22.2531 7.42667 22.2534L8.12033 22.2531C8.25933 25.4346 11.0253 28.0003 14.352 28C14.436 27.9997 14.5193 27.9981 14.603 27.9949C16.878 27.9077 18.8467 26.6424 19.86 24.8034C19.8833 24.8412 19.9177 24.8707 19.969 24.8884C20.0277 24.9086 20.082 24.9169 20.1323 24.915C20.463 24.9021 20.6307 24.4534 20.7933 24.0174L20.8677 23.8209C21.0287 23.4058 21.1743 22.8317 21.0547 22.58C21.0157 22.498 20.9563 22.4624 20.9143 22.4473C20.8023 22.4073 20.6813 22.4541 20.553 22.5807C20.5617 22.4951 20.5753 22.4114 20.5803 22.3249C20.58 21.3129 20.4927 20.8673 20.4353 20.683C20.9083 20.5775 21.4187 20.5246 22.065 20.5157C22.614 20.5221 23.057 20.541 23.573 20.6548C23.5727 20.6561 23.5723 20.657 23.572 20.6583C23.515 20.8288 23.42 21.2719 23.42 22.3246C23.42 22.3271 23.4203 22.3294 23.4203 22.3323C23.4237 22.39 23.4337 22.4454 23.4387 22.5025C23.3307 22.4146 23.229 22.3867 23.1347 22.421C23.092 22.4361 23.033 22.4714 22.9937 22.5538C22.8737 22.8051 23.019 23.3795 23.1803 23.795C23.206 23.861 23.231 23.9277 23.2557 23.9937C23.365 24.286 23.4683 24.5617 23.6157 24.7258C23.7317 24.8547 23.852 24.8903 23.9547 24.8864C24.0003 24.8845 24.0427 24.8749 24.0793 24.8624C24.11 24.8521 24.13 24.8358 24.1487 24.8191C25.2017 26.7155 27.2747 27.9994 29.649 27.9994C29.7313 27.999 29.813 27.9978 29.895 27.9945C33.1107 27.8715 35.745 25.3541 35.8797 22.2515H36.5733C36.697 22.2505 36.798 22.2162 36.8697 22.1476C37 22.0216 37 21.8197 37 21.6248C37 21.4299 37.0003 21.2283 36.8693 21.1026ZM14.3517 27.7227C11.1337 27.723 8.46567 25.2064 8.404 22.112C8.40267 22.0367 8.33833 21.9758 8.26 21.9761L7.42667 21.9764C7.319 21.9764 7.288 21.9617 7.288 21.6274C7.288 21.3171 7.315 21.2821 7.40433 21.2789C7.41133 21.2786 7.41867 21.2786 7.42633 21.2786H8.32333C8.394 21.276 8.455 21.2286 8.46567 21.1603C8.89333 18.3772 11.4177 16.2798 14.351 16.2789C17.101 16.2789 19.54 18.1516 20.1503 20.7317C20.151 20.7356 20.1523 20.7394 20.1537 20.7433C20.195 20.8676 20.2917 21.2699 20.292 22.3175C20.1197 25.3484 17.5073 27.7256 14.3517 27.7227ZM20.4563 23.2C20.4703 23.1888 20.4823 23.175 20.4913 23.1586C20.6347 22.8955 20.7467 22.7756 20.8043 22.731C20.8293 22.8557 20.7963 23.2115 20.5977 23.7238L20.522 23.9238C20.3693 24.3325 20.2473 24.6281 20.1053 24.6335C20.105 24.6335 20.1047 24.6335 20.104 24.6335C20.1023 24.5797 20.115 24.4803 20.1253 24.3976L20.1307 24.3543C20.134 24.3271 20.1267 24.3021 20.115 24.2793C20.2627 23.9347 20.3773 23.5741 20.4563 23.2ZM22.0647 20.2384C21.3847 20.2464 20.8543 20.3035 20.3583 20.4153C20.3273 20.3073 20.296 20.1993 20.259 20.0938C20.7897 19.9531 21.326 19.8896 22.068 19.8806C22.7473 19.8893 23.248 19.9435 23.751 20.0634C23.713 20.1698 23.6803 20.2781 23.6487 20.3871C23.1013 20.265 22.6397 20.2454 22.0647 20.2384ZM23.9267 24.6002C23.9267 24.6028 23.927 24.605 23.927 24.6076C23.9013 24.6031 23.8713 24.5864 23.833 24.5444C23.721 24.4194 23.622 24.1549 23.5267 23.8998C23.5013 23.8325 23.476 23.7648 23.45 23.6978C23.2513 23.1862 23.2183 22.8304 23.2433 22.7051C23.2947 22.7448 23.39 22.8455 23.5127 23.0551C23.6013 23.5343 23.7483 23.9927 23.9473 24.4245C23.9327 24.445 23.9217 24.4681 23.922 24.4957C23.922 24.5354 23.9243 24.5704 23.9267 24.6002ZM36.666 21.9511C36.6463 21.9697 36.6057 21.9745 36.5733 21.9736L35.7397 21.9739C35.65 21.9832 35.5977 22.0345 35.596 22.1098C35.5363 25.1285 32.9957 27.598 29.8833 27.7173C29.8057 27.7202 29.7273 27.7218 29.6487 27.7218C26.4923 27.7221 23.8837 25.3496 23.7077 22.3207C23.708 21.2706 23.8043 20.8676 23.849 20.7314C24.459 18.1509 26.8877 16.2818 29.648 16.2776C32.575 16.2773 35.1053 18.3756 35.534 21.1581C35.5443 21.226 35.605 21.2763 35.6767 21.2763L36.5733 21.276C36.6047 21.276 36.646 21.2799 36.6657 21.2985C36.7117 21.343 36.7117 21.4988 36.7117 21.6245C36.712 21.7501 36.712 21.9066 36.666 21.9511Z" fill="#14274E"/>
</svg>
