<svg width="45" height="46" viewBox="0 0 45 46" fill="none" xmlns="http://www.w3.org/2000/svg">
<path d="M44.9993 22.5317C44.9993 10.1076 34.9059 0 22.4996 0C10.0933 0 -8.7738e-05 10.1076 -8.7738e-05 22.5317C-8.7738e-05 34.9558 10.0933 45.0634 22.4996 45.0634C34.9059 45.0634 44.9993 34.9558 44.9993 22.5317ZM0.319622 22.5317C0.319622 10.2843 10.2694 0.320162 22.4996 0.320162C34.7298 0.320162 44.6796 10.2843 44.6796 22.5317C44.6796 34.7791 34.7298 44.7432 22.4996 44.7432C10.2694 44.7432 0.319622 34.7791 0.319622 22.5317Z" fill="#14274E"/>
<path d="M38.5938 28.3875C38.6219 28.3047 38.5806 28.2124 38.4976 28.1824C38.4152 28.1521 38.3234 28.1949 38.2928 28.2781C35.8893 34.9033 29.5425 39.3546 22.4995 39.3546C22.4115 39.3546 22.3397 39.4262 22.3397 39.5147C22.3397 39.6032 22.4115 39.6748 22.4995 39.6748C29.6762 39.6748 36.1441 35.1388 38.5938 28.3875Z" fill="#14274E"/>
<path d="M39.2989 22.5319C39.2989 23.0159 39.2783 23.5058 39.2371 23.9883C39.2365 23.9926 39.2365 23.9973 39.2365 24.002C39.2365 24.0842 39.2996 24.154 39.3826 24.1612C39.4707 24.1687 39.5481 24.1033 39.5556 24.0151C39.5974 23.524 39.6187 23.0246 39.6187 22.5319C39.6187 22.4434 39.5468 22.3718 39.4588 22.3718C39.3708 22.3718 39.2989 22.4434 39.2989 22.5319Z" fill="#14274E"/>
<path d="M32.9807 32.9433L30.7761 32.9892L30.2175 33C30.125 32.9896 30.0365 32.9924 29.9405 32.9713C29.8465 32.941 29.7387 32.9286 29.6553 32.8795C29.5672 32.8372 29.4759 32.7985 29.4 32.7359C29.3174 32.682 29.2418 32.6194 29.1754 32.5456C29.0329 32.4092 28.9271 32.236 28.8473 32.0525C28.8063 31.9611 28.7902 31.8594 28.7619 31.7625L28.7155 31.4864L28.625 30.935L28.4436 29.8323L28.2623 28.7284L28.0892 27.617C28.0809 27.5647 28.1025 27.5144 28.1415 27.4845L28.1501 27.4777C29.0396 26.7884 29.8131 25.9474 30.3957 24.9855C30.9744 24.0232 31.3772 22.9501 31.5314 21.8306C31.6624 20.71 31.5893 19.5546 31.2612 18.4794C30.9358 17.3963 30.3729 16.3861 29.6431 15.5196C28.9161 14.6475 28.0121 13.9322 27.0234 13.3828C26.0344 12.8299 24.9455 12.4661 23.8314 12.2869C22.7177 12.1038 21.5725 12.1261 20.4536 12.2694C19.3442 12.4258 18.253 12.772 17.2553 13.2907C15.2572 14.3208 13.6183 16.0829 12.8535 18.2026C12.4727 19.2626 12.3271 20.394 12.4338 21.5234C12.5396 22.6337 12.8814 23.7228 13.433 24.6999C14.5345 26.6619 16.4087 28.1224 18.5039 28.8856C19.5563 29.267 20.672 29.4649 21.7951 29.4821C22.9262 29.4904 24.0493 29.3648 25.1426 29.0911L25.1469 29.0903C25.1811 29.0815 25.2162 29.0927 25.2394 29.1162C26.2945 30.1774 27.3279 31.2614 28.3732 32.333C28.3807 32.3409 28.3807 32.3533 28.3732 32.3613C28.3653 32.3689 28.3535 32.3689 28.3457 32.3613C27.2646 31.3272 26.1717 30.3051 25.1005 29.2606L25.1973 29.2854C24.0898 29.5902 22.9372 29.7418 21.7955 29.7577C20.6444 29.7653 19.4886 29.587 18.3926 29.2164C17.2974 28.8461 16.2553 28.2936 15.3493 27.5587C14.4413 26.8282 13.6584 25.9306 13.0781 24.9069C12.4983 23.8864 12.1214 22.7338 12.0282 21.5477C11.929 20.382 12.0927 19.1728 12.503 18.0713C12.9106 16.9658 13.5514 15.9549 14.3532 15.1091C15.1529 14.2609 16.1034 13.5644 17.14 13.0557C18.177 12.5446 19.2915 12.2147 20.4359 12.0795C21.5697 11.9634 22.724 11.9638 23.8542 12.1525C24.9829 12.3436 26.0761 12.7258 27.0872 13.2663C28.0978 13.8097 29.0129 14.5346 29.7835 15.3967C30.5515 16.2609 31.1597 17.2818 31.5251 18.3952C31.71 18.9454 31.8324 19.5414 31.8898 20.1187L31.9174 20.55L31.9307 20.7658C31.9339 20.8572 31.9244 20.9174 31.9221 20.9948C31.9036 21.288 31.8914 21.5829 31.867 21.8757C31.7175 23.045 31.3076 24.1768 30.6864 25.1682C30.0692 26.1636 29.2588 27.0257 28.3339 27.7271L28.3948 27.5878L28.7084 29.7916L28.8626 30.8983L28.9393 31.4517L28.9787 31.7274C29.0023 31.8087 29.0113 31.8949 29.0447 31.9735C29.1097 32.1307 29.1958 32.2843 29.3185 32.4064C29.3748 32.473 29.4397 32.5296 29.5113 32.5783C29.577 32.6358 29.6553 32.6721 29.7316 32.7132C29.8064 32.7622 29.8878 32.7698 29.9661 32.8025C30.0479 32.8261 30.1459 32.8281 30.2352 32.8424L30.7789 32.8544L32.9807 32.9035C32.9917 32.9035 33 32.9126 33 32.9238C32.9996 32.9346 32.991 32.9433 32.9807 32.9433Z" fill="#14274E"/>
</svg>
