<svg width="45" height="46" viewBox="0 0 45 46" fill="none" xmlns="http://www.w3.org/2000/svg">
<path d="M44.9993 22.5317C44.9993 10.1076 34.9059 0 22.4996 0C10.0933 0 -8.7738e-05 10.1076 -8.7738e-05 22.5317C-8.7738e-05 34.9558 10.0933 45.0634 22.4996 45.0634C34.9059 45.0634 44.9993 34.9558 44.9993 22.5317ZM0.319622 22.5317C0.319622 10.2843 10.2694 0.320162 22.4996 0.320162C34.7298 0.320162 44.6796 10.2843 44.6796 22.5317C44.6796 34.7791 34.7298 44.7432 22.4996 44.7432C10.2694 44.7432 0.319622 34.7791 0.319622 22.5317Z" fill="#14274E"/>
<path d="M38.5938 28.3875C38.6219 28.3047 38.5806 28.2124 38.4976 28.1824C38.4152 28.1521 38.3234 28.1949 38.2928 28.2781C35.8893 34.9033 29.5425 39.3546 22.4995 39.3546C22.4115 39.3546 22.3397 39.4262 22.3397 39.5147C22.3397 39.6032 22.4115 39.6748 22.4995 39.6748C29.6762 39.6748 36.1441 35.1388 38.5938 28.3875Z" fill="#14274E"/>
<path d="M39.2989 22.5319C39.2989 23.0159 39.2783 23.5058 39.2371 23.9883C39.2365 23.9926 39.2365 23.9973 39.2365 24.002C39.2365 24.0842 39.2996 24.154 39.3826 24.1612C39.4707 24.1687 39.5481 24.1033 39.5556 24.0151C39.5974 23.524 39.6187 23.0246 39.6187 22.5319C39.6187 22.4434 39.5468 22.3718 39.4588 22.3718C39.3708 22.3718 39.2989 22.4434 39.2989 22.5319Z" fill="#14274E"/>
<path d="M22.3602 26.2883C21.6413 26.2883 21.2027 26.6442 20.8494 26.9309C20.8372 26.9408 20.8251 26.9506 20.8132 26.9602C20.6287 27.1095 20.4766 27.2271 20.3116 27.2945C20.1567 27.3577 19.9842 27.3787 19.7562 27.3117C19.5282 27.2448 19.3941 27.1338 19.2978 26.9966C19.1951 26.8505 19.1305 26.6691 19.0559 26.4438C19.0509 26.4288 19.046 26.4137 19.0409 26.3985C18.8985 25.9665 18.7218 25.4304 18.1188 25.0429C17.5158 24.6554 16.9547 24.7173 16.5026 24.7672C16.4867 24.769 16.4709 24.7707 16.4552 24.7724C16.2193 24.7982 16.0274 24.8148 15.8519 24.7821C15.6871 24.7514 15.5304 24.6756 15.3748 24.496C15.2192 24.3164 15.1664 24.1506 15.1596 23.9832C15.1522 23.8048 15.1959 23.6173 15.255 23.3875C15.2589 23.3723 15.2629 23.3569 15.2669 23.3415C15.3807 22.901 15.5219 22.3544 15.224 21.7021C14.9261 21.0498 14.4205 20.7985 14.0131 20.5961C13.9988 20.589 13.9846 20.582 13.9706 20.575C13.7582 20.4691 13.5878 20.3793 13.4579 20.257C13.3359 20.1422 13.2451 19.9937 13.2113 19.7585C13.1774 19.5233 13.2227 19.3555 13.3073 19.2113C13.3975 19.0577 13.5355 18.924 13.7095 18.7627C13.7207 18.7523 13.732 18.7418 13.7435 18.7313C14.0776 18.4224 14.4924 18.0389 14.5949 17.3266C14.6973 16.6143 14.4073 16.1294 14.1737 15.7389C14.1657 15.7255 14.1578 15.7123 14.15 15.6992C14.0285 15.4954 13.9337 15.3283 13.8905 15.1554C13.8499 14.9932 13.8537 14.8195 13.9525 14.6034C14.0512 14.3872 14.1798 14.2707 14.3287 14.1953C14.4875 14.1149 14.6757 14.0773 14.9092 14.0358C14.924 14.0332 14.9389 14.0305 14.954 14.0279C15.4022 13.9488 15.9588 13.8507 16.4312 13.3055C16.9036 12.7604 16.9215 12.1954 16.936 11.7405C16.9365 11.7252 16.937 11.7101 16.9374 11.6951C16.9453 11.4581 16.9558 11.2664 17.0127 11.0978C17.0661 10.9397 17.1631 10.7958 17.3631 10.6673C17.563 10.5388 17.7343 10.5103 17.9005 10.5274C18.0777 10.5456 18.2565 10.6156 18.4755 10.707C18.4895 10.7128 18.5036 10.7187 18.5179 10.7247C18.9376 10.9004 19.4589 11.1185 20.15 10.9156C20.8411 10.7127 21.1616 10.2473 21.4198 9.87259C21.4286 9.85987 21.4373 9.84725 21.4459 9.83476C21.5807 9.63958 21.6933 9.48396 21.8325 9.37287C21.9631 9.26866 22.1226 9.2 22.3602 9.2C22.5979 9.2 22.7577 9.26872 22.8887 9.37311C23.0282 9.48433 23.1412 9.64013 23.2762 9.8353C23.285 9.84814 23.294 9.8611 23.303 9.87418C23.5613 10.2487 23.8819 10.7134 24.5705 10.9156C25.2591 11.1178 25.7801 10.9001 26.1998 10.7248C26.2145 10.7186 26.229 10.7126 26.2434 10.7066C26.4625 10.6154 26.6418 10.5454 26.8193 10.5273C26.9859 10.5102 27.1575 10.5388 27.3574 10.6673C27.5573 10.7958 27.6547 10.9401 27.7085 11.0988C27.7659 11.2679 27.7768 11.4603 27.7849 11.6975C27.7854 11.7132 27.786 11.7292 27.7865 11.7452C27.8015 12.1998 27.82 12.764 28.2893 13.3055C28.7585 13.8471 29.3143 13.9457 29.7622 14.0253C29.778 14.0281 29.7937 14.0309 29.8092 14.0336C30.0428 14.0754 30.2316 14.1136 30.3909 14.1944C30.5404 14.2703 30.6693 14.3872 30.768 14.6034C30.8668 14.8195 30.8706 14.9934 30.8301 15.1558C30.7869 15.3288 30.6921 15.4962 30.5706 15.7C30.5627 15.7133 30.5546 15.7268 30.5465 15.7403C30.3131 16.1308 30.0234 16.6156 30.1256 17.3266C30.2279 18.0375 30.6424 18.421 30.9764 18.73C30.988 18.7407 30.9995 18.7513 31.0108 18.7619C31.1848 18.9232 31.3229 19.0571 31.4131 19.211C31.4978 19.3554 31.5431 19.5233 31.5092 19.7585C31.4754 19.9937 31.3848 20.1418 31.2631 20.2562C31.1333 20.3781 30.9633 20.4673 30.751 20.5729C30.7374 20.5797 30.7238 20.5864 30.71 20.5932C30.3023 20.7954 29.7959 21.0465 29.4965 21.7021C29.1971 22.3577 29.339 22.9048 29.4532 23.3453C29.457 23.3602 29.4609 23.375 29.4646 23.3896C29.5239 23.6192 29.5678 23.8062 29.5606 23.9841C29.5539 24.1509 29.5013 24.3164 29.3457 24.496C29.1901 24.6756 29.0338 24.7511 28.8696 24.7815C28.6946 24.8139 28.5034 24.7971 28.2677 24.7711C28.2527 24.7694 28.2376 24.7677 28.2224 24.766C27.7701 24.7156 27.2084 24.653 26.6017 25.0429C25.995 25.4328 25.8186 25.9698 25.6766 26.4022C25.6718 26.4167 25.6671 26.4311 25.6624 26.4454C25.5881 26.6706 25.524 26.8516 25.4218 26.9973C25.326 27.134 25.1924 27.2448 24.9643 27.3117C24.7363 27.3787 24.5638 27.3577 24.4089 27.2945C24.2439 27.2271 24.0918 27.1095 23.9073 26.9602C23.8954 26.9506 23.8833 26.9408 23.8711 26.9309C23.5178 26.6442 23.0792 26.2883 22.3602 26.2883Z" stroke="#14274E" stroke-width="0.4"/>
<path d="M18.7693 24.0043V35" stroke="#14274E" stroke-width="0.4"/>
<line x1="25.5532" y1="35" x2="25.5532" y2="25.1264" stroke="#14274E" stroke-width="0.4"/>
<path d="M25.7532 35L22.2613 30.9608L18.7693 35" stroke="#14274E" stroke-width="0.4"/>
</svg>
